<svg width="160" height="160" viewBox="0 0 160 160" xmlns="http://www.w3.org/2000/svg">
  <!-- LP Plast - Minimal Modern Logo -->
  
  <!-- Top Triangle -->
  <polygon points="80,20 130,60 30,60" fill="#E31E24"/>
  
  <!-- L Shape (Blue) -->
  <path d="M 20,70 L 20,130 L 70,130 L 70,115 L 40,115 L 40,70 Z" fill="#1E88E5"/>
  
  <!-- P Shape (Red) -->
  <path d="M 90,70 L 90,130 L 105,130 L 105,100 L 125,100 C 135,100 140,95 140,85 L 140,80 C 140,75 135,70 125,70 Z M 105,85 L 125,85 L 125,95 L 105,95 Z" fill="#E31E24"/>
  
  <!-- Bottom Triangle -->
  <polygon points="80,140 130,140 105,155 55,155 30,140" fill="#E31E24"/>
  
  <!-- Small Accent Dots -->
  <circle cx="145" cy="80" r="4" fill="#E31E24" opacity="0.6"/>
  <circle cx="15" cy="80" r="3" fill="#1E88E5" opacity="0.6"/>
</svg>
